<?xml version="1.0" encoding="utf-8"?>
<!-- Generator: Adobe Illustrator 26.0.2, SVG Export Plug-In . SVG Version: 6.00 Build 0)  -->
<svg version="1.1" id="Layer_1" xmlns="http://www.w3.org/2000/svg" xmlns:xlink="http://www.w3.org/1999/xlink" x="0px" y="0px"
	 viewBox="0 0 631 38" style="enable-background:new 0 0 631 38;" xml:space="preserve">
<style type="text/css">
	.st0{fill:#FFFFFF;}
	.st1{fill:url(#SVGID_1_);}
	.st2{fill:url(#SVGID_00000077283010435593358140000014205829145702677124_);}
	.st3{fill:url(#SVGID_00000007410655221712497470000010094036348358108573_);}
	.st4{fill:url(#SVGID_00000123436740720823621310000007347722596058409133_);}
	.st5{fill:url(#SVGID_00000083050195069207104660000006128399283953321383_);}
</style>
<path class="st0" d="M0,20C0,10.6,0,5.9,2.9,2.9S10.6,0,20,0h17.1v17c0,9.4,0,14.1-2.9,17.1C31.2,37,26.5,37,17.1,37H0V20z"/>
<path class="st0" d="M0,0"/>
<path class="st0" d="M0,0"/>
<path class="st0" d="M33,4H11.5C7.4,4,4,7.4,4,11.5L33,4z"/>
<radialGradient id="SVGID_1_" cx="-645.7668" cy="560.9282" r="1" gradientTransform="matrix(-29 30 638.608 617.3217 -376907.5 -326896.6562)" gradientUnits="userSpaceOnUse">
	<stop  offset="0" style="stop-color:#01CDFA"/>
	<stop  offset="0.7135" style="stop-color:#BD00FF"/>
	<stop  offset="1" style="stop-color:#FF00B8"/>
</radialGradient>
<path class="st1" d="M33,4H11.5C7.4,4,4,7.4,4,11.5L33,4z"/>
<path class="st0" d="M25.5,33L33,4h0v21.5C33.1,29.7,29.7,33,25.5,33z"/>
<radialGradient id="SVGID_00000041270206628379604580000003353491780678081455_" cx="-645.7668" cy="560.9282" r="1" gradientTransform="matrix(-29 30 638.608 617.3217 -376907.5 -326896.6562)" gradientUnits="userSpaceOnUse">
	<stop  offset="0" style="stop-color:#01CDFA"/>
	<stop  offset="0.7135" style="stop-color:#BD00FF"/>
	<stop  offset="1" style="stop-color:#FF00B8"/>
</radialGradient>
<path style="fill:url(#SVGID_00000041270206628379604580000003353491780678081455_);" d="M25.5,33L33,4h0v21.5
	C33.1,29.7,29.7,33,25.5,33z"/>
<path class="st0" d="M26.4,24.1C24.6,29.5,19.6,33,14,33L33.1,4L4,23.6C4,18,7.6,13,12.9,11.1L33.1,4L26.4,24.1z"/>
<path class="st0" d="M47.5,27.3h3.1V16.4l0-0.2v-1.9c0-0.9,0.2-1.5,0.7-1.9c0.4-0.4,1.1-0.6,1.9-0.6c0.2,0,0.5,0,0.7,0
	c0.2,0,0.4,0,0.6,0.1l0.1-2.3c-0.3-0.1-0.6-0.1-0.9-0.1s-0.6,0-0.9,0c-1.6,0-2.8,0.4-3.8,1.2c-1,0.8-1.4,2-1.4,3.6V27.3z M45.1,17.7
	h8.6v-2.3H49h-0.5h-3.4V17.7z"/>
<path class="st0" d="M55.1,22.3c0,1.9,0.4,3.2,1.3,4.1c0.9,0.8,2.1,1.3,3.6,1.3c1.1,0,2-0.2,2.9-0.6c0.8-0.4,1.5-0.9,2-1.5h0
	l0.1,1.8h3v-12h-3.2v7.7c-0.4,0.6-0.8,1.1-1.5,1.5c-0.6,0.4-1.4,0.6-2.2,0.6c-0.9,0-1.6-0.2-2.1-0.7c-0.5-0.5-0.8-1.2-0.8-2.2v-6.9
	h-3.2V22.3z"/>
<path class="st0" d="M71.3,27.3h3.1v-7.7c0.4-0.6,0.9-1.1,1.5-1.5c0.6-0.4,1.4-0.6,2.2-0.6c0.9,0,1.7,0.2,2.1,0.7
	c0.5,0.5,0.8,1.2,0.8,2.2v6.9h3.2v-7c0-1.9-0.5-3.2-1.4-4c-0.9-0.8-2.1-1.2-3.6-1.2c-1.1,0-2,0.2-2.8,0.6c-0.8,0.4-1.5,0.9-2,1.5h0
	l-0.1-1.9h-3V27.3z"/>
<path class="st0" d="M86.6,21.5c0,1.8,0.6,3.3,1.7,4.4c1.1,1.1,2.7,1.7,4.6,1.7c1.1,0,2.1-0.2,2.9-0.5c0.8-0.4,1.4-0.8,1.8-1.3h0
	l0.1,1.6h3V9.6h-3.1v7.3c-0.4-0.5-1-0.9-1.8-1.3c-0.8-0.3-1.7-0.5-2.8-0.5c-1.9,0-3.4,0.6-4.6,1.7c-1.1,1.1-1.7,2.6-1.7,4.4V21.5z
	 M89.8,21.6v-0.5c0-1.1,0.3-2,0.9-2.6c0.6-0.7,1.6-1,3-1c0.9,0,1.7,0.2,2.4,0.6c0.7,0.4,1.1,0.8,1.4,1.3v4c-0.3,0.5-0.7,0.9-1.4,1.3
	c-0.7,0.4-1.5,0.6-2.4,0.6c-1.4,0-2.3-0.3-3-1C90.1,23.6,89.8,22.7,89.8,21.6z"/>
<path class="st0" d="M104,27.3h3.2v-7.4c0.3-0.6,0.8-1.1,1.5-1.6c0.7-0.4,1.5-0.6,2.3-0.6c0.3,0,0.6,0,0.8,0c0.2,0,0.4,0.1,0.6,0.1
	v-2.6c-0.1,0-0.3-0.1-0.5-0.1c-0.2-0.1-0.5-0.1-0.8-0.1c-0.9,0-1.7,0.2-2.4,0.7c-0.7,0.5-1.2,1-1.6,1.7H107l-0.1-2h-3V27.3z"/>
<path class="st0" d="M112.9,23.8c0,1.2,0.4,2.1,1.3,2.8c0.9,0.6,2.1,1,3.7,1c1.3,0,2.4-0.2,3.3-0.6c0.9-0.4,1.5-0.8,1.8-1.3
	c0,0.3,0.1,0.6,0.2,0.9c0.1,0.3,0.2,0.5,0.3,0.7h3.1v-0.2c-0.2-0.3-0.3-0.7-0.4-1.1c-0.1-0.5-0.1-0.9-0.1-1.4v-5.4
	c0-1.4-0.5-2.4-1.5-3.1c-1-0.7-2.5-1.1-4.5-1.1c-2,0-3.5,0.3-4.6,1s-1.7,1.6-1.7,2.8v0.2h3v-0.2c0-0.5,0.3-0.9,0.8-1.2
	c0.5-0.3,1.3-0.4,2.3-0.4c1.1,0,1.9,0.2,2.3,0.5c0.5,0.3,0.7,0.8,0.7,1.5v0.8l-3.8,0c-2,0-3.6,0.3-4.6,1
	C113.5,21.6,112.9,22.5,112.9,23.8z M116.1,23.6c0-0.6,0.3-1.1,0.9-1.4c0.6-0.3,1.5-0.5,2.7-0.5h3.3v1.2c0,0.7-0.4,1.3-1.2,1.8
	s-1.7,0.8-2.8,0.8c-1,0-1.8-0.2-2.2-0.5C116.3,24.7,116.1,24.2,116.1,23.6z"/>
<path class="st0" d="M129.5,27.3h3.2v-12h-3.2V27.3z M129.2,11.8c0,0.5,0.2,0.9,0.5,1.3c0.3,0.3,0.8,0.5,1.4,0.5
	c0.6,0,1.1-0.2,1.4-0.5c0.3-0.3,0.5-0.8,0.5-1.3c0-0.5-0.2-0.9-0.5-1.3c-0.3-0.3-0.8-0.5-1.4-0.5c-0.6,0-1.1,0.2-1.4,0.5
	C129.3,10.9,129.2,11.3,129.2,11.8z"/>
<path class="st0" d="M135.2,23.5v0.2c0,1.2,0.6,2.2,1.7,2.9c1.1,0.7,2.8,1,4.9,1c2.1,0,3.7-0.4,4.9-1.1c1.1-0.7,1.7-1.7,1.7-2.9
	c0-1-0.4-1.8-1.2-2.4c-0.8-0.6-2.3-1-4.4-1.3c-1.7-0.2-2.8-0.5-3.4-0.7c-0.5-0.2-0.8-0.5-0.8-0.9c0-0.4,0.2-0.8,0.7-1
	c0.5-0.2,1.2-0.3,2.3-0.3c1.1,0,1.9,0.1,2.4,0.4c0.5,0.3,0.8,0.7,0.8,1.3v0.3h3v-0.3c0-1.2-0.6-2.1-1.7-2.8c-1.1-0.7-2.6-1-4.5-1
	c-1.9,0-3.4,0.3-4.5,1c-1.1,0.6-1.7,1.5-1.7,2.7c0,1,0.4,1.8,1.3,2.4c0.9,0.6,2.3,1,4.3,1.2c1.8,0.2,2.9,0.5,3.4,0.7
	c0.5,0.2,0.7,0.6,0.7,1c0,0.5-0.3,0.9-0.9,1.1c-0.6,0.2-1.4,0.4-2.5,0.4c-1.1,0-1.9-0.1-2.6-0.4c-0.6-0.3-0.9-0.8-0.9-1.4v-0.2
	L135.2,23.5z"/>
<path class="st0" d="M150,21.5c0,1.9,0.7,3.4,2,4.5c1.3,1.1,3.1,1.7,5.5,1.7c1.6,0,2.9-0.2,4-0.8c1.1-0.5,1.8-1.1,2.3-1.8l-2.2-1.4
	c-0.4,0.5-0.9,0.8-1.6,1.2s-1.5,0.5-2.5,0.5c-1.5,0-2.5-0.3-3.3-1c-0.7-0.7-1.1-1.6-1.1-2.8V21c0-1.1,0.3-2,1-2.7c0.7-0.7,1.7-1,3-1
	c1.3,0,2.3,0.2,2.8,0.8c0.6,0.5,0.8,1.1,0.8,2v0.1h-8.8V22h12V21c0-1.8-0.6-3.3-1.8-4.4c-1.2-1.1-2.8-1.6-5-1.6
	c-2.1,0-3.9,0.6-5.2,1.7c-1.3,1.1-2,2.6-2,4.5V21.5z"/>
<path class="st0" d="M166.3,27.3h3.2v-7.4c0.3-0.6,0.8-1.1,1.5-1.6c0.7-0.4,1.5-0.6,2.3-0.6c0.3,0,0.6,0,0.8,0
	c0.2,0,0.4,0.1,0.6,0.1v-2.6c-0.1,0-0.3-0.1-0.5-0.1c-0.2-0.1-0.5-0.1-0.8-0.1c-0.9,0-1.7,0.2-2.4,0.7c-0.7,0.5-1.2,1-1.6,1.7h-0.1
	l-0.1-2h-3V27.3z"/>
<path class="st0" d="M174.9,25.7c0,0.5,0.2,1,0.5,1.3c0.3,0.4,0.8,0.6,1.5,0.6c0.6,0,1.1-0.2,1.5-0.5c0.3-0.4,0.5-0.8,0.5-1.3
	c0-0.5-0.2-1-0.5-1.3c-0.3-0.4-0.8-0.6-1.5-0.6c-0.6,0-1.1,0.2-1.5,0.6C175.1,24.7,174.9,25.2,174.9,25.7z"/>
<path class="st0" d="M181.6,21.5c0,1.9,0.6,3.4,1.9,4.5c1.3,1.1,3.1,1.7,5.3,1.7c2.1,0,3.7-0.4,4.8-1.3c1.1-0.9,1.7-1.9,1.7-3.2
	v-0.2h-3.1l0,0.1c0,0.7-0.3,1.2-0.8,1.6c-0.5,0.4-1.4,0.6-2.6,0.6c-1.4,0-2.4-0.3-3.1-1c-0.6-0.7-1-1.6-1-2.8v-0.5
	c0-1.2,0.3-2.1,1-2.7c0.7-0.7,1.7-1,3.1-1c1.2,0,2,0.2,2.6,0.6c0.5,0.4,0.8,0.9,0.8,1.6l0,0.1h3.1l0-0.2c-0.1-1.2-0.6-2.3-1.7-3.1
	c-1.1-0.9-2.7-1.3-4.8-1.3c-2.2,0-4,0.6-5.3,1.7c-1.3,1.1-2,2.6-2,4.5V21.5z"/>
<path class="st0" d="M197,21.5c0,1.9,0.7,3.4,2,4.5c1.4,1.1,3.1,1.7,5.3,1.7c2.2,0,4-0.6,5.3-1.7c1.3-1.1,2-2.6,2-4.5v-0.3
	c0-1.9-0.7-3.4-2-4.5c-1.3-1.1-3.1-1.7-5.3-1.7c-2.2,0-4,0.6-5.3,1.7c-1.3,1.1-2,2.6-2,4.5V21.5z M200.2,21.1c0-1.1,0.4-2,1.1-2.7
	c0.7-0.7,1.8-1,3.1-1s2.4,0.3,3.1,1c0.7,0.7,1.1,1.6,1.1,2.7v0.5c0,1.1-0.4,2-1.1,2.7c-0.7,0.7-1.7,1-3.1,1c-1.3,0-2.4-0.3-3.1-1
	c-0.7-0.7-1.1-1.6-1.1-2.7V21.1z"/>
<path class="st0" d="M214.2,27.3h3.1v-7.7c0.4-0.6,0.9-1.1,1.5-1.5c0.6-0.4,1.4-0.6,2.2-0.6c0.9,0,1.7,0.2,2.1,0.7
	c0.5,0.5,0.8,1.2,0.8,2.2v6.9h3.2v-7c0-1.9-0.5-3.2-1.4-4c-0.9-0.8-2.1-1.2-3.6-1.2c-1.1,0-2,0.2-2.8,0.6c-0.8,0.4-1.5,0.9-2,1.5h0
	l-0.1-1.9h-3V27.3z"/>
<path class="st0" d="M228.6,17.7h9.1v-2.3h-9.1V17.7z M231.2,23.8c0,1.3,0.4,2.3,1.1,2.9c0.8,0.6,1.7,0.9,3,0.9c0.6,0,1.1,0,1.5-0.1
	c0.4-0.1,0.7-0.2,0.9-0.3l-0.1-2.3c-0.2,0.1-0.5,0.1-0.7,0.2c-0.2,0-0.5,0.1-0.8,0.1c-0.6,0-1-0.1-1.3-0.4c-0.3-0.3-0.4-0.7-0.4-1.3
	V12.2h-3.1v4l0,0.3V23.8z"/>
<path class="st0" d="M239.2,23.8c0,1.2,0.4,2.1,1.3,2.8c0.9,0.6,2.1,1,3.7,1c1.3,0,2.4-0.2,3.3-0.6c0.9-0.4,1.5-0.8,1.8-1.3
	c0,0.3,0.1,0.6,0.2,0.9c0.1,0.3,0.2,0.5,0.3,0.7h3.1v-0.2c-0.2-0.3-0.3-0.7-0.4-1.1c-0.1-0.5-0.1-0.9-0.1-1.4v-5.4
	c0-1.4-0.5-2.4-1.5-3.1c-1-0.7-2.5-1.1-4.5-1.1c-2,0-3.5,0.3-4.6,1c-1.1,0.6-1.7,1.6-1.7,2.8v0.2h3v-0.2c0-0.5,0.3-0.9,0.8-1.2
	c0.5-0.3,1.3-0.4,2.3-0.4c1.1,0,1.9,0.2,2.3,0.5c0.5,0.3,0.7,0.8,0.7,1.5v0.8l-3.8,0c-2,0-3.6,0.3-4.6,1
	C239.7,21.6,239.2,22.5,239.2,23.8z M242.3,23.6c0-0.6,0.3-1.1,0.9-1.4c0.6-0.3,1.5-0.5,2.7-0.5h3.3v1.2c0,0.7-0.4,1.3-1.2,1.8
	c-0.8,0.5-1.7,0.8-2.8,0.8c-1,0-1.8-0.2-2.2-0.5S242.3,24.2,242.3,23.6z"/>
<path class="st0" d="M254.9,21.5c0,1.9,0.6,3.4,1.9,4.5c1.3,1.1,3.1,1.7,5.3,1.7c2.1,0,3.7-0.4,4.8-1.3c1.1-0.9,1.7-1.9,1.7-3.2
	v-0.2h-3.1l0,0.1c0,0.7-0.3,1.2-0.8,1.6c-0.5,0.4-1.4,0.6-2.6,0.6c-1.4,0-2.4-0.3-3.1-1c-0.6-0.7-1-1.6-1-2.8v-0.5
	c0-1.2,0.3-2.1,1-2.7c0.7-0.7,1.7-1,3.1-1c1.2,0,2,0.2,2.6,0.6c0.5,0.4,0.8,0.9,0.8,1.6l0,0.1h3.1l0-0.2c-0.1-1.2-0.6-2.3-1.7-3.1
	c-1.1-0.9-2.7-1.3-4.8-1.3c-2.2,0-4,0.6-5.3,1.7c-1.3,1.1-2,2.6-2,4.5V21.5z"/>
<path class="st0" d="M269.4,17.7h9.1v-2.3h-9.1V17.7z M272,23.8c0,1.3,0.4,2.3,1.1,2.9c0.8,0.6,1.7,0.9,3,0.9c0.6,0,1.1,0,1.5-0.1
	c0.4-0.1,0.7-0.2,0.9-0.3l-0.1-2.3c-0.2,0.1-0.5,0.1-0.7,0.2c-0.2,0-0.5,0.1-0.8,0.1c-0.6,0-1-0.1-1.3-0.4c-0.3-0.3-0.4-0.7-0.4-1.3
	V12.2H272v4l0,0.3V23.8z"/>
<g>
	
		<radialGradient id="SVGID_00000176740984799690750320000014932353665979671940_" cx="32.8862" cy="4.0384" r="40.7131" gradientUnits="userSpaceOnUse">
		<stop  offset="0" style="stop-color:#01CDFA"/>
		<stop  offset="0.7135" style="stop-color:#BD00FF"/>
		<stop  offset="1" style="stop-color:#FF00B8"/>
	</radialGradient>
	<path style="fill:url(#SVGID_00000176740984799690750320000014932353665979671940_);" d="M14,33c5.6,0,10.6-3.6,12.4-8.9L33.1,4
		L14,33z"/>
	
		<radialGradient id="SVGID_00000041284847950876215090000013555440651735244938_" cx="32.8862" cy="4.0384" r="40.7131" gradientUnits="userSpaceOnUse">
		<stop  offset="0" style="stop-color:#01CDFA"/>
		<stop  offset="0.7135" style="stop-color:#BD00FF"/>
		<stop  offset="1" style="stop-color:#FF00B8"/>
	</radialGradient>
	<path style="fill:url(#SVGID_00000041284847950876215090000013555440651735244938_);" d="M4,23.6L33.1,4l-20.2,7.1
		C7.6,13,4,18,4,23.6z"/>
	
		<radialGradient id="SVGID_00000035525892803723875660000009446925533959758248_" cx="32.8862" cy="4.0384" r="40.7131" gradientUnits="userSpaceOnUse">
		<stop  offset="0" style="stop-color:#01CDFA"/>
		<stop  offset="0.7135" style="stop-color:#BD00FF"/>
		<stop  offset="1" style="stop-color:#FF00B8"/>
	</radialGradient>
	<path style="fill:url(#SVGID_00000035525892803723875660000009446925533959758248_);" d="M7.5,24.3c-1,1-1.9,2.2-2.5,3.7
		c-0.6,1.4-1.1,3-1,5.1c2.1,0.1,3.7-0.4,5.1-1c1.4-0.6,2.6-1.5,3.7-2.5c2-2.1,14.5-18.3,15.8-21.1C25.8,9.7,9.6,22.2,7.5,24.3z"/>
</g>
</svg>
